<?xml version="1.0" encoding="UTF-8"?>
<svg xmlns="http://www.w3.org/2000/svg" width="512" height="512" viewBox="0 0 512 512">
  <defs>
    <linearGradient id="g" x1="0" y1="0" x2="1" y2="1">
      <stop offset="0" stop-color="#FFE08A"/>
      <stop offset="0.55" stop-color="#D4AF37"/>
      <stop offset="1" stop-color="#8E6B1F"/>
    </linearGradient>
  </defs>
  <g fill="none" stroke="url(#g)" stroke-width="18" stroke-linecap="round" stroke-linejoin="round">
    <path d="M160 150h192a44 44 0 0 1 44 44v156a44 44 0 0 1-44 44H160a44 44 0 0 1-44-44V194a44 44 0 0 1 44-44z"/>
    <path d="M190 118v52"/>
    <path d="M322 118v52"/>
    <path d="M116 214h280"/>
    <path d="M210 330l90-120"/>
    <path d="M304 332l-96-126"/>
    <path d="M236 252l-12-28"/>
    <path d="M276 252l12-28"/>
    <path d="M192 322h40"/>
    <path d="M280 322h40"/>
  </g>
  <g fill="url(#g)">
    <circle cx="192" cy="120" r="10"/>
    <circle cx="322" cy="120" r="10"/>
  </g>
</svg>
