<?xml version="1.0" encoding="UTF-8"?>
<svg xmlns="http://www.w3.org/2000/svg" width="24" height="24" viewBox="0 0 24 24">
  <path fill="#EA4335" d="M12 10.2v3.9h5.4c-.2 1.2-.9 2.2-1.9 2.9l3.1 2.4c1.8-1.7 2.9-4.2 2.9-7.2 0-.7-.1-1.2-.2-1.8H12z"/>
  <path fill="#34A853" d="M12 22c2.6 0 4.8-.9 6.4-2.4l-3.1-2.4c-.9.6-2 .9-3.3.9-2.5 0-4.6-1.7-5.4-4.0l-3.2 2.5C4.9 19.7 8.2 22 12 22z"/>
  <path fill="#4A90E2" d="M6.6 14.1c-.2-.6-.3-1.3-.3-2.1s.1-1.4.3-2.1L3.3 7.4C2.5 9.0 2 10.9 2 12s.5 3.0 1.3 4.6l3.3-2.5z"/>
  <path fill="#FBBC05" d="M12 5.9c1.4 0 2.6.5 3.6 1.4l2.7-2.7C16.7 2.9 14.6 2 12 2 8.2 2 4.9 4.3 3.3 7.4l3.3 2.5c.8-2.3 2.9-4.0 5.4-4.0z"/>
</svg>
