<?xml version="1.0" encoding="UTF-8"?>
<svg xmlns="http://www.w3.org/2000/svg" width="24" height="24" viewBox="0 0 24 24">
  <path fill="#111111" d="M16.5 13.1c0-2.2 1.8-3.3 1.9-3.4-1-1.5-2.6-1.7-3.2-1.7-1.4-.1-2.7.8-3.4.8-.7 0-1.9-.8-3.1-.8-1.6 0-3.1.9-3.9 2.3-1.7 2.9-.4 7.2 1.2 9.5.8 1.1 1.8 2.4 3.1 2.3 1.2 0 1.7-.8 3.2-.8 1.5 0 1.9.8 3.3.8 1.4 0 2.2-1.2 3.0-2.3.9-1.3 1.3-2.6 1.3-2.6s-2.4-.9-2.4-3.4z"/>
  <path fill="#111111" d="M14.7 5.2c.7-.8 1.2-2 1.1-3.2-1 .1-2.2.7-2.9 1.5-.6.7-1.2 1.9-1.1 3 1.1.1 2.2-.6 2.9-1.3z"/>
</svg>
